<svg width="36" height="36" viewBox="0 0 36 36" fill="none" xmlns="http://www.w3.org/2000/svg">
<path d="M12.9375 21.0938C12.6594 21.0938 12.3875 21.0113 12.1562 20.8568C11.925 20.7022 11.7447 20.4826 11.6383 20.2256C11.5319 19.9687 11.504 19.6859 11.5583 19.4132C11.6125 19.1404 11.7465 18.8898 11.9431 18.6931C12.1398 18.4965 12.3904 18.3625 12.6632 18.3083C12.9359 18.254 13.2187 18.2819 13.4757 18.3883C13.7326 18.4947 13.9522 18.675 14.1068 18.9062C14.2613 19.1375 14.3438 19.4094 14.3438 19.6875C14.3438 20.0605 14.1956 20.4181 13.9319 20.6819C13.6682 20.9456 13.3105 21.0938 12.9375 21.0938ZM23.0625 18.2812C22.7844 18.2812 22.5125 18.3637 22.2812 18.5182C22.05 18.6728 21.8697 18.8924 21.7633 19.1494C21.6569 19.4063 21.629 19.6891 21.6833 19.9618C21.7375 20.2346 21.8715 20.4852 22.0681 20.6819C22.2648 20.8785 22.5154 21.0125 22.7882 21.0667C23.0609 21.121 23.3437 21.0931 23.6007 20.9867C23.8576 20.8803 24.0772 20.7 24.2318 20.4688C24.3863 20.2375 24.4688 19.9656 24.4688 19.6875C24.4688 19.3145 24.3206 18.9569 24.0569 18.6931C23.7932 18.4294 23.4355 18.2812 23.0625 18.2812ZM32.3438 18C32.3438 20.8369 31.5025 23.6101 29.9264 25.969C28.3503 28.3278 26.1101 30.1663 23.4891 31.2519C20.8681 32.3375 17.9841 32.6216 15.2017 32.0681C12.4193 31.5147 9.86345 30.1486 7.85744 28.1426C5.85143 26.1366 4.48532 23.5807 3.93187 20.7983C3.37841 18.0159 3.66246 15.1319 4.74811 12.5109C5.83375 9.88991 7.67223 7.64972 10.031 6.07361C12.3899 4.4975 15.1631 3.65625 18 3.65625C21.8028 3.66072 25.4486 5.17336 28.1376 7.86237C30.8266 10.5514 32.3393 14.1972 32.3438 18ZM30.6563 18C30.6563 15.4968 29.914 13.0499 28.5233 10.9686C27.1326 8.88725 25.156 7.26507 22.8433 6.30715C20.5307 5.34923 17.986 5.09859 15.5309 5.58694C13.0758 6.07528 10.8207 7.28067 9.05069 9.05068C7.28068 10.8207 6.07529 13.0758 5.58694 15.5309C5.0986 17.986 5.34923 20.5307 6.30716 22.8433C7.26508 25.156 8.88726 27.1326 10.9686 28.5233C13.0499 29.914 15.4968 30.6562 18 30.6562C21.3555 30.6525 24.5725 29.3179 26.9452 26.9452C29.3179 24.5725 30.6525 21.3555 30.6563 18ZM24.2817 11.6719L18 15.8611L11.7183 11.6719C11.626 11.6104 11.5224 11.5677 11.4136 11.5462C11.3047 11.5247 11.1927 11.5249 11.0839 11.5467C10.9752 11.5685 10.8718 11.6115 10.7796 11.6733C10.6875 11.7351 10.6084 11.8144 10.5469 11.9067C10.4854 11.9991 10.4427 12.1026 10.4212 12.2114C10.3997 12.3203 10.3999 12.4323 10.4217 12.5411C10.4657 12.7607 10.5952 12.9539 10.7817 13.0781L17.5317 17.5781C17.6704 17.6706 17.8333 17.72 18 17.72C18.1667 17.72 18.3296 17.6706 18.4683 17.5781L25.2183 13.0781C25.3106 13.0166 25.3899 12.9375 25.4517 12.8454C25.5135 12.7532 25.5565 12.6498 25.5783 12.5411C25.6001 12.4323 25.6003 12.3203 25.5788 12.2114C25.5573 12.1026 25.5146 11.9991 25.4531 11.9067C25.3916 11.8144 25.3126 11.7351 25.2204 11.6733C25.1283 11.6115 25.0248 11.5685 24.9161 11.5467C24.8073 11.5249 24.6953 11.5247 24.5864 11.5462C24.4776 11.5677 24.3741 11.6104 24.2817 11.6719ZM21.8419 25.1719C20.6986 24.4125 19.6088 23.9062 18 23.9062C16.3913 23.9062 15.3014 24.4125 14.1581 25.1719C14.0658 25.2332 13.9864 25.3121 13.9246 25.4041C13.8628 25.496 13.8196 25.5993 13.7977 25.7079C13.7758 25.8166 13.7754 25.9285 13.7967 26.0373C13.818 26.146 13.8606 26.2495 13.9219 26.3419C13.9832 26.4342 14.0621 26.5136 14.1541 26.5754C14.246 26.6373 14.3493 26.6804 14.458 26.7023C14.5666 26.7243 14.6785 26.7246 14.7873 26.7033C14.896 26.682 14.9995 26.6394 15.0919 26.5781C16.0299 25.9552 16.8061 25.5938 18 25.5938C19.1939 25.5938 19.9688 25.9552 20.9081 26.5781C21.0459 26.6701 21.2079 26.7191 21.3736 26.7188C21.555 26.7192 21.7317 26.6611 21.8775 26.5531C22.0233 26.4452 22.1305 26.2931 22.183 26.1195C22.2356 25.9458 22.2308 25.7599 22.1694 25.5892C22.1079 25.4185 21.9931 25.2722 21.8419 25.1719Z" fill="#AB2D2D"/>
</svg>
