<svg width="36" height="36" viewBox="0 0 36 36" fill="none" xmlns="http://www.w3.org/2000/svg">
<path d="M18 31.7143C25.5742 31.7143 31.7143 25.5742 31.7143 18C31.7143 10.4258 25.5742 4.28571 18 4.28571C10.4258 4.28571 4.28571 10.4258 4.28571 18C4.28571 25.5742 10.4258 31.7143 18 31.7143Z" stroke="#2DAB5D" stroke-width="2" stroke-linecap="round" stroke-linejoin="round"/>
<path d="M13.7143 15.4286C14.6611 15.4286 15.4286 14.6611 15.4286 13.7143C15.4286 12.7675 14.6611 12 13.7143 12C12.7675 12 12 12.7675 12 13.7143C12 14.6611 12.7675 15.4286 13.7143 15.4286Z" fill="#2DAB5D"/>
<path d="M22.2857 15.4286C23.2325 15.4286 24 14.6611 24 13.7143C24 12.7675 23.2325 12 22.2857 12C21.3389 12 20.5714 12.7675 20.5714 13.7143C20.5714 14.6611 21.3389 15.4286 22.2857 15.4286Z" fill="#2DAB5D"/>
<path d="M12.8571 19.7143C13.8908 21.9994 15.6051 23.1428 18 23.1428C20.3948 23.1428 22.1091 21.9994 23.1428 19.7143" stroke="#2DAB5D" stroke-width="2" stroke-linecap="round" stroke-linejoin="round"/>
</svg>
