<svg width="36" height="36" viewBox="0 0 36 36" fill="none" xmlns="http://www.w3.org/2000/svg">
<path d="M23.568 28.6327C21.8505 29.5337 19.9395 30.0029 18 30C11.3723 30 6 24.6278 6 18C6 11.3723 11.3723 6 18 6C24.6278 6 30 11.3723 30 18C30 18.1252 29.9978 18.2505 29.994 18.375H31.4948C31.4985 18.2505 31.5 18.1252 31.5 18C31.5 10.5443 25.4557 4.5 18 4.5C10.5443 4.5 4.5 10.5443 4.5 18C4.5 25.4557 10.5443 31.5 18 31.5C20.1896 31.5034 22.3469 30.9717 24.2843 29.9513L23.568 28.6327Z" fill="#2A72A7"/>
<path d="M10.3072 17.5125C10.2172 18.066 10.593 18.5963 11.1052 18.9248C11.6407 19.2675 12.4042 19.455 13.3027 19.3223C13.7043 19.2679 14.0896 19.1283 14.4329 18.9129C14.7762 18.6976 15.0695 18.4114 15.2932 18.0735C15.6712 17.5005 15.8265 16.8038 15.6532 16.287C15.6331 16.2273 15.5983 16.1737 15.552 16.131C15.5057 16.0883 15.4493 16.058 15.3882 16.0428C15.3271 16.0276 15.2631 16.0281 15.2022 16.0442C15.1413 16.0602 15.0854 16.0914 15.0397 16.1348C13.6927 17.4128 12.1717 17.727 10.8075 17.2208C10.7555 17.2016 10.6999 17.1941 10.6447 17.199C10.5895 17.2038 10.5361 17.2208 10.4882 17.2488C10.4404 17.2768 10.3994 17.315 10.3681 17.3607C10.3368 17.4064 10.316 17.4578 10.3072 17.5125ZM25.3642 17.5125C25.4535 18.066 25.0777 18.5963 24.5655 18.9248C24.03 19.2675 23.2672 19.455 22.368 19.3223C21.9666 19.2678 21.5814 19.1282 21.2382 18.9128C20.8951 18.6974 20.6019 18.4113 20.3782 18.0735C20.0002 17.5005 19.8442 16.8038 20.0182 16.287C20.0384 16.2273 20.0732 16.1737 20.1195 16.131C20.1658 16.0883 20.2221 16.058 20.2833 16.0428C20.3444 16.0276 20.4084 16.0281 20.4693 16.0442C20.5302 16.0602 20.5861 16.0914 20.6317 16.1348C21.9787 17.4128 23.4997 17.727 24.8632 17.2208C24.9153 17.2014 24.9709 17.1939 25.0262 17.1986C25.0815 17.2034 25.1351 17.2204 25.183 17.2484C25.2309 17.2764 25.272 17.3147 25.3034 17.3605C25.3347 17.4063 25.3555 17.4577 25.3642 17.5125ZM30 24C30 24.7957 29.6839 25.5587 29.1213 26.1213C28.5587 26.6839 27.7956 27 27 27C26.2043 27 25.4413 26.6839 24.8787 26.1213C24.3161 25.5587 24 24.7957 24 24C24 21.375 27 18.75 27 18.75C27 18.75 30 21.375 30 24ZM15.6 25.2C16.8 23.6003 19.2 23.6003 20.4 25.2C20.5193 25.3591 20.697 25.4643 20.8939 25.4925C21.0908 25.5206 21.2909 25.4694 21.45 25.35C21.6091 25.2307 21.7143 25.053 21.7425 24.8561C21.7706 24.6592 21.7193 24.4591 21.6 24.3C19.8 21.9 16.2 21.9 14.4 24.3C14.2806 24.4591 14.2294 24.6592 14.2575 24.8561C14.2857 25.053 14.3909 25.2307 14.55 25.35C14.7091 25.4694 14.9091 25.5206 15.1061 25.4925C15.303 25.4643 15.4806 25.3591 15.6 25.2Z" fill="#2A72A7"/>
</svg>
