<svg width="36" height="36" viewBox="0 0 36 36" fill="none" xmlns="http://www.w3.org/2000/svg">
<path d="M12 18V21C12 22.65 12.5875 24.0625 13.7625 25.2375C14.9375 26.4125 16.35 27 18 27C19.65 27 21.0625 26.4125 22.2375 25.2375C23.4125 24.0625 24 22.65 24 21V19.5C24 19.075 23.8565 18.7185 23.5695 18.4305C23.2815 18.1435 22.925 18 22.5 18H12ZM18 24.75C16.95 24.75 16.0625 24.3875 15.3375 23.6625C14.6125 22.9375 14.25 22.05 14.25 21V20.25H21.75V21C21.75 22.05 21.3875 22.9375 20.6625 23.6625C19.9375 24.3875 19.05 24.75 18 24.75ZM12.75 10.5C11.9 10.5 11.15 10.775 10.5 11.325C9.85 11.875 9.35 12.55 9 13.35C8.875 13.625 8.8935 13.8875 9.0555 14.1375C9.2185 14.3875 9.45 14.55 9.75 14.625C10.025 14.7 10.3 14.669 10.575 14.532C10.85 14.394 11.05 14.1875 11.175 13.9125C11.35 13.5875 11.569 13.3125 11.832 13.0875C12.094 12.8625 12.4 12.75 12.75 12.75C13.1 12.75 13.4065 12.869 13.6695 13.107C13.9315 13.344 14.15 13.625 14.325 13.95C14.45 14.225 14.65 14.425 14.925 14.55C15.2 14.675 15.475 14.7 15.75 14.625C16.05 14.55 16.2815 14.3875 16.4445 14.1375C16.6065 13.8875 16.625 13.625 16.5 13.35C16.15 12.55 15.65 11.875 15 11.325C14.35 10.775 13.6 10.5 12.75 10.5ZM23.25 10.5C22.4 10.5 21.65 10.775 21 11.325C20.35 11.875 19.85 12.55 19.5 13.35C19.375 13.625 19.394 13.8875 19.557 14.1375C19.719 14.3875 19.95 14.55 20.25 14.625C20.525 14.7 20.8 14.669 21.075 14.532C21.35 14.394 21.55 14.1875 21.675 13.9125C21.85 13.5875 22.0685 13.3125 22.3305 13.0875C22.5935 12.8625 22.9 12.75 23.25 12.75C23.6 12.75 23.9065 12.869 24.1695 13.107C24.4315 13.344 24.65 13.625 24.825 13.95C24.95 14.225 25.15 14.425 25.425 14.55C25.7 14.675 25.975 14.7 26.25 14.625C26.55 14.55 26.781 14.3875 26.943 14.1375C27.106 13.8875 27.125 13.625 27 13.35C26.65 12.55 26.15 11.875 25.5 11.325C24.85 10.775 24.1 10.5 23.25 10.5ZM18 33C15.925 33 13.975 32.606 12.15 31.818C10.325 31.031 8.7375 29.9625 7.3875 28.6125C6.0375 27.2625 4.969 25.675 4.182 23.85C3.394 22.025 3 20.075 3 18C3 15.925 3.394 13.975 4.182 12.15C4.969 10.325 6.0375 8.7375 7.3875 7.3875C8.7375 6.0375 10.325 4.9685 12.15 4.1805C13.975 3.3935 15.925 3 18 3C20.075 3 22.025 3.3935 23.85 4.1805C25.675 4.9685 27.2625 6.0375 28.6125 7.3875C29.9625 8.7375 31.031 10.325 31.818 12.15C32.606 13.975 33 15.925 33 18C33 20.075 32.606 22.025 31.818 23.85C31.031 25.675 29.9625 27.2625 28.6125 28.6125C27.2625 29.9625 25.675 31.031 23.85 31.818C22.025 32.606 20.075 33 18 33ZM18 30C21.35 30 24.1875 28.8375 26.5125 26.5125C28.8375 24.1875 30 21.35 30 18C30 14.65 28.8375 11.8125 26.5125 9.4875C24.1875 7.1625 21.35 6 18 6C14.65 6 11.8125 7.1625 9.4875 9.4875C7.1625 11.8125 6 14.65 6 18C6 21.35 7.1625 24.1875 9.4875 26.5125C11.8125 28.8375 14.65 30 18 30Z" fill="#FEC855"/>
</svg>
